<svg width="144" height="144" viewBox="0 0 144 144" fill="none" xmlns="http://www.w3.org/2000/svg">
  <rect width="144" height="144" rx="24" fill="#8B5CF6"/>
  <path d="M72 36C58.7452 36 48 46.7452 48 60C48 73.2548 58.7452 84 72 84C85.2548 84 96 73.2548 96 60C96 46.7452 85.2548 36 72 36Z" fill="white"/>
  <path d="M36 108C36 94.7452 46.7452 84 60 84H84C97.2548 84 108 94.7452 108 108V120C108 124.418 104.418 128 100 128H44C39.5817 128 36 124.418 36 120V108Z" fill="white"/>
  <circle cx="60" cy="60" r="4" fill="#8B5CF6"/>
  <circle cx="84" cy="60" r="4" fill="#8B5CF6"/>
  <path d="M66 72C66 68.6863 68.6863 66 72 66C75.3137 66 78 68.6863 78 72C78 75.3137 75.3137 78 72 78C68.6863 78 66 75.3137 66 72Z" fill="#8B5CF6"/>
</svg>
